# xmcd
#
# Track frame offsets:
# 150
# 14461
# 27666
# 37274
# 54645
# 67060
# 94675
# 97762
# 105258
# 122959
# 130223
# 136636
# 148180
# 153782
# 158628
# 166596
# 171924
#
# Disc length: 2467 seconds
#
#
# Revision: 0
# Processed by: cddbd v1.4PL0 Copyright (c) Steve Scherf et al.
# Submitted via: FreeRIP 2.11 
#
DISCID=de09a111
DTITLE=Baba Zula - 3_ Oyundan_ 17_ Sarki
DYEAR=2000
DGENRE=
TTITLE0=Babasýz Kýzlar Balosu
TTITLE1=Korsan
TTITLE2=Maduray'da Sabah
TTITLE3=Erotika
TTITLE4=Hýdýrellez Gülleri
TTITLE5=Bahar
TTITLE6=Kurabiye Dans
TTITLE7=Tohum
TTITLE8=Anam
TTITLE9=Dini Bütün Bir Gece
TTITLE10=Çiçeðin Doðuþu
TTITLE11=Çöl Aslanlar
TTITLE12=Mutfak Kazalarý
TTITLE13=Kurbaða Öyküleri
TTITLE14=Çöl Havasý
TTITLE15=Adam
TTITLE16=El Filan Sallýyorum
EXTD=
EXTT0=
EXTT1=
EXTT2=
EXTT3=
EXTT4=
EXTT5=
EXTT6=
EXTT7=
EXTT8=
EXTT9=
EXTT10=
EXTT11=
EXTT12=
EXTT13=
EXTT14=
EXTT15=
EXTT16=
PLAYORDER=
